# xmcd CD database file
#
# Track frame offsets:
#	150
#	20857
#	45547
#
# Disc length: 881 seconds
#
# Revision: 0
# Processed by: cddbd v1.5.1PL2 Copyright (c) Steve Scherf et al.
# Submitted via: CDex 1.51
#
DISCID=20036f03
DTITLE=フクシクミコ - アンテリージェ
DYEAR=1994
DGENRE=JPop
TTITLE0=アンテリージェ
TTITLE1=ふり向いた午後
TTITLE2=アンテリージェ（オリジナルカラオケ）
EXTD=YEAR: 1994
EXTT0=
EXTT1=
EXTT2=
PLAYORDER=
